<svg width="250" height="80" viewBox="0 0 250 80" fill="none" xmlns="http://www.w3.org/2000/svg">
<path d="M14.3391 32.6612C12.6552 35.1345 9.48079 35.9921 7.24876 34.5766C5.01673 33.1612 4.57234 30.0088 6.25619 27.5354C7.94004 25.0621 11.1145 24.2045 13.3465 25.62C15.5786 27.0354 16.0229 30.1878 14.3391 32.6612Z" fill="url(#paint0_linear_336_21)"/>
<path d="M9.81754 45.7641C8.84379 48.6709 5.92787 50.3637 3.30466 49.5452C0.681454 48.7267 -0.655692 45.7067 0.318064 42.7999C1.29182 39.8931 4.20773 38.2003 6.83094 39.0188C9.45415 39.8373 10.7913 42.8573 9.81754 45.7641Z" fill="url(#paint1_linear_336_21)"/>
<path d="M21.5408 20.5768C19.6407 22.6262 16.6011 22.9927 14.7517 21.3955C12.9023 19.7982 12.9434 16.8421 14.8435 14.7928C16.7436 12.7434 19.7832 12.3769 21.6326 13.9741C23.482 15.5714 23.4409 18.5275 21.5408 20.5768Z" fill="url(#paint2_linear_336_21)"/>
<path d="M30.2604 11.9577C28.0932 13.2961 25.4035 12.9741 24.2528 11.2384C23.102 9.5028 23.9259 7.01081 26.0931 5.67241C28.2602 4.33401 30.9499 4.65604 32.1007 6.39168C33.2515 8.12731 32.4275 10.6193 30.2604 11.9577Z" fill="url(#paint3_linear_336_21)"/>
<path d="M41.1361 6.26982C39.1025 7.11209 36.8668 6.47456 36.1426 4.84584C35.4184 3.21711 36.4799 1.21397 38.5136 0.371695C40.5472 -0.470584 42.7829 0.166954 43.5071 1.79567C44.2313 3.4244 43.1698 5.42754 41.1361 6.26982Z" fill="url(#paint4_linear_336_21)"/>
<path fill-rule="evenodd" clip-rule="evenodd" d="M51.6323 23.3039C61.1981 25.7605 66.5837 36.3448 63.6616 46.9448C60.7393 57.5449 50.6153 64.1469 41.0493 61.6905C31.4835 59.2339 26.098 48.6496 29.0201 38.0496C31.9424 27.4495 42.0664 20.8475 51.6323 23.3039ZM47.056 34.2062L44.5918 47.7662L37.9769 34.0476L34.6903 33.9904L31.209 52.9425L34.5224 53.0006L36.9866 39.4406L43.6016 53.1589L46.888 53.2164L50.3695 34.264L47.056 34.2062ZM50.6967 34.2698L47.2151 53.2222L50.5291 53.2802L51.9414 45.5019L59.1884 45.6284L59.7011 42.7244L52.4809 42.598L53.443 37.2829L62.0642 37.4335L62.5777 34.4776L50.6967 34.2698Z" fill="url(#paint5_linear_336_21)"/>
<path d="M30.0366 15.4872C34.6682 12.0862 41.5568 7.57068 47.7591 6.1709L37.4103 12.8512C36.4117 13.4958 35.4628 14.2093 34.5709 14.986L32.6478 16.661C29.2697 19.6032 26.4537 23.0975 24.33 26.9814C23.2237 29.0045 22.422 31.1705 21.9499 33.4122L21.8276 33.9928C21.0932 37.4798 20.8236 41.043 21.0252 44.596L21.0499 45.0329C21.3412 50.1652 22.9963 55.1388 25.856 59.475L27.2763 61.6285C28.9772 64.2075 31.2073 66.423 33.8293 68.1385C39.4266 71.8005 46.4009 72.923 52.9266 71.2122L53.5331 71.0532C55.8777 70.4386 58.1149 69.4916 60.1715 68.2433L61.5964 67.3785C62.9535 66.5548 64.2388 65.6258 65.4396 64.6007C68.4661 62.0171 71.1187 59.0521 73.326 55.7857L79.1859 47.114L74.1191 57.9514C72.4715 61.4755 70.2738 64.7349 67.6027 67.6162L66.6907 68.5999C65.3617 70.0335 63.8944 71.3418 62.3087 72.5072L60.504 73.8336C58.5029 75.3043 56.2827 76.4739 53.9186 77.3027L51.5757 78.124C50.0088 78.6733 48.3887 79.0694 46.7398 79.3063L43.7345 79.7381C41.3836 80.0758 38.9946 80.087 36.6404 79.7713L35.2295 79.5821C32.1917 79.1747 29.2579 78.2292 26.576 76.7933L26.0719 76.5234C24.1715 75.506 22.4173 74.2528 20.8539 72.7959L19.1369 71.1957L17.0139 68.208C14.8873 65.2152 13.4905 61.7965 12.9283 58.2083L12.4926 55.428C11.7872 50.9258 12.0182 46.333 13.1722 41.9179L13.9347 39.0004C15.2118 34.1145 17.4978 29.5277 20.6558 25.515L23.4534 21.9601C25.3569 19.5415 27.5322 17.3262 30.0366 15.4872Z" fill="url(#paint6_linear_336_21)"/>
<path d="M96.2548 46.6667H92.5595V25.0074H96.2841L106.344 40.3556V25.0074H110.039V46.6667H106.344L96.2548 31.3185V46.6667Z" fill="url(#paint7_linear_336_21)"/>
<path d="M119.858 47.0519C115.547 47.0519 112.526 43.8815 112.526 39.3481C112.526 34.7556 115.489 31.5852 119.741 31.5852C124.082 31.5852 126.839 34.5185 126.839 39.0815V40.1778L115.928 40.2074C116.192 42.7852 117.542 44.0889 119.917 44.0889C121.882 44.0889 123.172 43.3185 123.583 41.9259H126.897C126.281 45.1259 123.642 47.0519 119.858 47.0519ZM119.77 34.5481C117.659 34.5481 116.368 35.7037 116.016 37.8963H123.29C123.29 35.8815 121.911 34.5481 119.77 34.5481Z" fill="url(#paint8_linear_336_21)"/>
<path d="M130.686 46.6667H126.609L131.595 39.4963L126.609 32.0296H130.774L133.97 37.0074L137.05 32.0296H141.068L136.141 39.437L140.921 46.6667H136.815L133.736 41.837L130.686 46.6667Z" fill="url(#paint9_linear_336_21)"/>
<path d="M147.82 46.6667H144.242V35.0519H141.456V32.0296H144.242V27.4667H147.82V32.0296H150.636V35.0519H147.82V46.6667Z" fill="url(#paint10_linear_336_21)"/>
<path d="M164.239 37.8074H156.262V46.6667H152.508V25.0074H165.764V28.5037H156.262V34.4H164.239V37.8074Z" fill="url(#paint11_linear_336_21)"/>
<path d="M175.944 31.9704V35.3185H174.625C172.044 35.3185 170.431 36.7111 170.431 39.5556V46.6667H166.853V32.0593H170.225L170.431 34.1926C171.046 32.7407 172.425 31.763 174.361 31.763C174.859 31.763 175.358 31.8222 175.944 31.9704Z" fill="url(#paint12_linear_336_21)"/>
<path d="M176.149 39.3185C176.149 34.7556 179.404 31.6148 183.892 31.6148C188.379 31.6148 191.634 34.7556 191.634 39.3185C191.634 43.8815 188.379 47.0222 183.892 47.0222C179.404 47.0222 176.149 43.8815 176.149 39.3185ZM179.727 39.3185C179.727 41.9852 181.428 43.7926 183.892 43.7926C186.355 43.7926 188.056 41.9852 188.056 39.3185C188.056 36.6518 186.355 34.8444 183.892 34.8444C181.428 34.8444 179.727 36.6518 179.727 39.3185Z" fill="url(#paint13_linear_336_21)"/>
<path d="M197.168 46.6667H193.59V32.0296H196.904L197.198 33.9259C198.107 32.4444 199.867 31.5852 201.832 31.5852C205.468 31.5852 207.345 33.8667 207.345 37.6593V46.6667H203.767V38.5185C203.767 36.0593 202.565 34.8741 200.717 34.8741C198.518 34.8741 197.168 36.4148 197.168 38.7852V46.6667Z" fill="url(#paint14_linear_336_21)"/>
<path d="M214.908 46.6667H211.33V35.0519H208.544V32.0296H211.33V27.4667H214.908V32.0296H217.724V35.0519H214.908V46.6667Z" fill="url(#paint15_linear_336_21)"/>
<path d="M220.857 29.0963C219.625 29.0963 218.657 28.1185 218.657 26.9037C218.657 25.6889 219.625 24.7407 220.857 24.7407C222.03 24.7407 222.998 25.6889 222.998 26.9037C222.998 28.1185 222.03 29.0963 220.857 29.0963ZM219.068 46.6667V32.0296H222.646V46.6667H219.068Z" fill="url(#paint16_linear_336_21)"/>
<path d="M231.944 47.0519C227.633 47.0519 224.612 43.8815 224.612 39.3481C224.612 34.7556 227.575 31.5852 231.827 31.5852C236.168 31.5852 238.925 34.5185 238.925 39.0815V40.1778L228.014 40.2074C228.278 42.7852 229.628 44.0889 232.003 44.0889C233.968 44.0889 235.259 43.3185 235.669 41.9259H238.983C238.367 45.1259 235.728 47.0519 231.944 47.0519ZM231.856 34.5481C229.745 34.5481 228.454 35.7037 228.102 37.8963H235.376C235.376 35.8815 233.997 34.5481 231.856 34.5481Z" fill="url(#paint17_linear_336_21)"/>
<path d="M250 31.9704V35.3185H248.68C246.099 35.3185 244.486 36.7111 244.486 39.5556V46.6667H240.908V32.0593H244.281L244.486 34.1926C245.102 32.7407 246.481 31.763 248.416 31.763C248.915 31.763 249.413 31.8222 250 31.9704Z" fill="url(#paint18_linear_336_21)"/>
<path d="M101.622 76.6519C95.375 76.6519 91.3277 72.2667 91.3277 65.4815C91.3277 58.7556 95.5216 54.2815 101.798 54.2815C106.872 54.2815 110.655 57.2741 111.388 61.9259H107.429C106.696 59.4074 104.555 57.9259 101.71 57.9259C97.7505 57.9259 95.2576 60.8296 95.2576 65.4519C95.2576 70.0444 97.7799 73.0074 101.71 73.0074C104.613 73.0074 106.842 71.4667 107.546 69.0667H111.447C110.626 73.6296 106.696 76.6519 101.622 76.6519Z" fill="url(#paint19_linear_336_21)"/>
<path d="M112.555 68.9481C112.555 64.3852 115.81 61.2444 120.298 61.2444C124.785 61.2444 128.04 64.3852 128.04 68.9481C128.04 73.5111 124.785 76.6519 120.298 76.6519C115.81 76.6519 112.555 73.5111 112.555 68.9481ZM116.133 68.9481C116.133 71.6148 117.834 73.4222 120.298 73.4222C122.761 73.4222 124.462 71.6148 124.462 68.9481C124.462 66.2815 122.761 64.4741 120.298 64.4741C117.834 64.4741 116.133 66.2815 116.133 68.9481Z" fill="url(#paint20_linear_336_21)"/>
<path d="M133.575 76.2963H129.997V61.6593H133.311L133.604 63.5556C134.513 62.0741 136.273 61.2148 138.238 61.2148C141.874 61.2148 143.751 63.4963 143.751 67.2889V76.2963H140.173V68.1481C140.173 65.6889 138.971 64.5037 137.123 64.5037C134.924 64.5037 133.575 66.0444 133.575 68.4148V76.2963Z" fill="url(#paint21_linear_336_21)"/>
<path d="M144.95 61.6593H147.032V59.8815C147.032 55.9111 149.115 54.2518 152.253 54.2518C152.81 54.2518 153.484 54.2815 154.1 54.4V57.4815H152.839C151.021 57.4815 150.581 58.4296 150.581 59.8815V61.6593H154.042V64.6815H150.581V76.2963H147.032V64.6815H144.95V61.6593Z" fill="url(#paint22_linear_336_21)"/>
<path d="M161.497 76.6815C157.186 76.6815 154.165 73.5111 154.165 68.9778C154.165 64.3852 157.128 61.2148 161.38 61.2148C165.721 61.2148 168.478 64.1481 168.478 68.7111V69.8074L157.567 69.837C157.831 72.4148 159.181 73.7185 161.556 73.7185C163.521 73.7185 164.812 72.9481 165.222 71.5556H168.536C167.92 74.7556 165.281 76.6815 161.497 76.6815ZM161.409 64.1778C159.298 64.1778 158.007 65.3333 157.655 67.5259H164.929C164.929 65.5111 163.55 64.1778 161.409 64.1778Z" fill="url(#paint23_linear_336_21)"/>
<path d="M179.553 61.6V64.9481H178.233C175.652 64.9481 174.039 66.3407 174.039 69.1852V76.2963H170.461V61.6889H173.834L174.039 63.8222C174.655 62.3704 176.034 61.3926 177.969 61.3926C178.468 61.3926 178.966 61.4518 179.553 61.6Z" fill="url(#paint24_linear_336_21)"/>
<path d="M187.09 76.6815C182.778 76.6815 179.758 73.5111 179.758 68.9778C179.758 64.3852 182.72 61.2148 186.972 61.2148C191.313 61.2148 194.07 64.1481 194.07 68.7111V69.8074L183.16 69.837C183.424 72.4148 184.773 73.7185 187.148 73.7185C189.113 73.7185 190.404 72.9481 190.814 71.5556H194.128C193.512 74.7556 190.873 76.6815 187.09 76.6815ZM187.002 64.1778C184.89 64.1778 183.6 65.3333 183.248 67.5259H190.521C190.521 65.5111 189.143 64.1778 187.002 64.1778Z" fill="url(#paint25_linear_336_21)"/>
<path d="M199.632 76.2963H196.053V61.6593H199.368L199.661 63.5556C200.57 62.0741 202.33 61.2148 204.295 61.2148C207.931 61.2148 209.808 63.4963 209.808 67.2889V76.2963H206.23V68.1481C206.23 65.6889 205.028 64.5037 203.18 64.5037C200.981 64.5037 199.632 66.0444 199.632 68.4148V76.2963Z" fill="url(#paint26_linear_336_21)"/>
<path d="M211.593 68.9481C211.593 64.4148 214.556 61.2148 218.838 61.2148C222.797 61.2148 225.495 63.437 225.876 66.963H222.298C221.888 65.3037 220.685 64.4444 218.984 64.4444C216.697 64.4444 215.172 66.1926 215.172 68.9481C215.172 71.7037 216.579 73.4222 218.867 73.4222C220.656 73.4222 221.917 72.5333 222.298 70.9333H225.906C225.466 74.3407 222.65 76.6815 218.867 76.6815C214.468 76.6815 211.593 73.6 211.593 68.9481Z" fill="url(#paint27_linear_336_21)"/>
<path d="M234.17 76.6815C229.859 76.6815 226.838 73.5111 226.838 68.9778C226.838 64.3852 229.801 61.2148 234.053 61.2148C238.394 61.2148 241.15 64.1481 241.15 68.7111V69.8074L230.24 69.837C230.504 72.4148 231.853 73.7185 234.229 73.7185C236.194 73.7185 237.484 72.9481 237.895 71.5556H241.209C240.593 74.7556 237.954 76.6815 234.17 76.6815ZM234.082 64.1778C231.971 64.1778 230.68 65.3333 230.328 67.5259H237.602C237.602 65.5111 236.223 64.1778 234.082 64.1778Z" fill="url(#paint28_linear_336_21)"/>
<defs>
<linearGradient id="paint0_linear_336_21" x1="-31.3657" y1="102.578" x2="38.9958" y2="-102.832" gradientUnits="userSpaceOnUse">
<stop offset="0.117023" stop-color="#0C1268"/>
<stop offset="1" stop-color="#085CB6"/>
</linearGradient>
<linearGradient id="paint1_linear_336_21" x1="-31.3657" y1="102.578" x2="38.9958" y2="-102.832" gradientUnits="userSpaceOnUse">
<stop offset="0.117023" stop-color="#0C1268"/>
<stop offset="1" stop-color="#085CB6"/>
</linearGradient>
<linearGradient id="paint2_linear_336_21" x1="-31.3657" y1="102.578" x2="38.9958" y2="-102.832" gradientUnits="userSpaceOnUse">
<stop offset="0.117023" stop-color="#0C1268"/>
<stop offset="1" stop-color="#085CB6"/>
</linearGradient>
<linearGradient id="paint3_linear_336_21" x1="-31.3657" y1="102.578" x2="38.9958" y2="-102.832" gradientUnits="userSpaceOnUse">
<stop offset="0.117023" stop-color="#0C1268"/>
<stop offset="1" stop-color="#085CB6"/>
</linearGradient>
<linearGradient id="paint4_linear_336_21" x1="-31.3657" y1="102.578" x2="38.9958" y2="-102.832" gradientUnits="userSpaceOnUse">
<stop offset="0.117023" stop-color="#0C1268"/>
<stop offset="1" stop-color="#085CB6"/>
</linearGradient>
<linearGradient id="paint5_linear_336_21" x1="-31.3657" y1="102.578" x2="38.9958" y2="-102.832" gradientUnits="userSpaceOnUse">
<stop offset="0.117023" stop-color="#0C1268"/>
<stop offset="1" stop-color="#085CB6"/>
</linearGradient>
<linearGradient id="paint6_linear_336_21" x1="-31.3657" y1="102.578" x2="38.9958" y2="-102.832" gradientUnits="userSpaceOnUse">
<stop offset="0.117023" stop-color="#0C1268"/>
<stop offset="1" stop-color="#085CB6"/>
</linearGradient>
<linearGradient id="paint7_linear_336_21" x1="-31.3657" y1="102.578" x2="38.9958" y2="-102.832" gradientUnits="userSpaceOnUse">
<stop offset="0.117023" stop-color="#0C1268"/>
<stop offset="1" stop-color="#085CB6"/>
</linearGradient>
<linearGradient id="paint8_linear_336_21" x1="-31.3657" y1="102.578" x2="38.9958" y2="-102.832" gradientUnits="userSpaceOnUse">
<stop offset="0.117023" stop-color="#0C1268"/>
<stop offset="1" stop-color="#085CB6"/>
</linearGradient>
<linearGradient id="paint9_linear_336_21" x1="-31.3657" y1="102.578" x2="38.9958" y2="-102.832" gradientUnits="userSpaceOnUse">
<stop offset="0.117023" stop-color="#0C1268"/>
<stop offset="1" stop-color="#085CB6"/>
</linearGradient>
<linearGradient id="paint10_linear_336_21" x1="-31.3657" y1="102.578" x2="38.9958" y2="-102.832" gradientUnits="userSpaceOnUse">
<stop offset="0.117023" stop-color="#0C1268"/>
<stop offset="1" stop-color="#085CB6"/>
</linearGradient>
<linearGradient id="paint11_linear_336_21" x1="-31.3657" y1="102.578" x2="38.9958" y2="-102.832" gradientUnits="userSpaceOnUse">
<stop offset="0.117023" stop-color="#0C1268"/>
<stop offset="1" stop-color="#085CB6"/>
</linearGradient>
<linearGradient id="paint12_linear_336_21" x1="-31.3657" y1="102.578" x2="38.9958" y2="-102.832" gradientUnits="userSpaceOnUse">
<stop offset="0.117023" stop-color="#0C1268"/>
<stop offset="1" stop-color="#085CB6"/>
</linearGradient>
<linearGradient id="paint13_linear_336_21" x1="-31.3657" y1="102.578" x2="38.9958" y2="-102.832" gradientUnits="userSpaceOnUse">
<stop offset="0.117023" stop-color="#0C1268"/>
<stop offset="1" stop-color="#085CB6"/>
</linearGradient>
<linearGradient id="paint14_linear_336_21" x1="-31.3657" y1="102.578" x2="38.9958" y2="-102.832" gradientUnits="userSpaceOnUse">
<stop offset="0.117023" stop-color="#0C1268"/>
<stop offset="1" stop-color="#085CB6"/>
</linearGradient>
<linearGradient id="paint15_linear_336_21" x1="-31.3657" y1="102.578" x2="38.9958" y2="-102.832" gradientUnits="userSpaceOnUse">
<stop offset="0.117023" stop-color="#0C1268"/>
<stop offset="1" stop-color="#085CB6"/>
</linearGradient>
<linearGradient id="paint16_linear_336_21" x1="-31.3657" y1="102.578" x2="38.9958" y2="-102.832" gradientUnits="userSpaceOnUse">
<stop offset="0.117023" stop-color="#0C1268"/>
<stop offset="1" stop-color="#085CB6"/>
</linearGradient>
<linearGradient id="paint17_linear_336_21" x1="-31.3657" y1="102.578" x2="38.9958" y2="-102.832" gradientUnits="userSpaceOnUse">
<stop offset="0.117023" stop-color="#0C1268"/>
<stop offset="1" stop-color="#085CB6"/>
</linearGradient>
<linearGradient id="paint18_linear_336_21" x1="-31.3657" y1="102.578" x2="38.9958" y2="-102.832" gradientUnits="userSpaceOnUse">
<stop offset="0.117023" stop-color="#0C1268"/>
<stop offset="1" stop-color="#085CB6"/>
</linearGradient>
<linearGradient id="paint19_linear_336_21" x1="-31.3657" y1="102.578" x2="38.9958" y2="-102.832" gradientUnits="userSpaceOnUse">
<stop offset="0.117023" stop-color="#0C1268"/>
<stop offset="1" stop-color="#085CB6"/>
</linearGradient>
<linearGradient id="paint20_linear_336_21" x1="-31.3657" y1="102.578" x2="38.9958" y2="-102.832" gradientUnits="userSpaceOnUse">
<stop offset="0.117023" stop-color="#0C1268"/>
<stop offset="1" stop-color="#085CB6"/>
</linearGradient>
<linearGradient id="paint21_linear_336_21" x1="-31.3657" y1="102.578" x2="38.9958" y2="-102.832" gradientUnits="userSpaceOnUse">
<stop offset="0.117023" stop-color="#0C1268"/>
<stop offset="1" stop-color="#085CB6"/>
</linearGradient>
<linearGradient id="paint22_linear_336_21" x1="-31.3657" y1="102.578" x2="38.9958" y2="-102.832" gradientUnits="userSpaceOnUse">
<stop offset="0.117023" stop-color="#0C1268"/>
<stop offset="1" stop-color="#085CB6"/>
</linearGradient>
<linearGradient id="paint23_linear_336_21" x1="-31.3657" y1="102.578" x2="38.9958" y2="-102.832" gradientUnits="userSpaceOnUse">
<stop offset="0.117023" stop-color="#0C1268"/>
<stop offset="1" stop-color="#085CB6"/>
</linearGradient>
<linearGradient id="paint24_linear_336_21" x1="-31.3657" y1="102.578" x2="38.9958" y2="-102.832" gradientUnits="userSpaceOnUse">
<stop offset="0.117023" stop-color="#0C1268"/>
<stop offset="1" stop-color="#085CB6"/>
</linearGradient>
<linearGradient id="paint25_linear_336_21" x1="-31.3657" y1="102.578" x2="38.9958" y2="-102.832" gradientUnits="userSpaceOnUse">
<stop offset="0.117023" stop-color="#0C1268"/>
<stop offset="1" stop-color="#085CB6"/>
</linearGradient>
<linearGradient id="paint26_linear_336_21" x1="-31.3657" y1="102.578" x2="38.9958" y2="-102.832" gradientUnits="userSpaceOnUse">
<stop offset="0.117023" stop-color="#0C1268"/>
<stop offset="1" stop-color="#085CB6"/>
</linearGradient>
<linearGradient id="paint27_linear_336_21" x1="-31.3657" y1="102.578" x2="38.9958" y2="-102.832" gradientUnits="userSpaceOnUse">
<stop offset="0.117023" stop-color="#0C1268"/>
<stop offset="1" stop-color="#085CB6"/>
</linearGradient>
<linearGradient id="paint28_linear_336_21" x1="-31.3657" y1="102.578" x2="38.9958" y2="-102.832" gradientUnits="userSpaceOnUse">
<stop offset="0.117023" stop-color="#0C1268"/>
<stop offset="1" stop-color="#085CB6"/>
</linearGradient>
</defs>
</svg>
